<?xml version="1.0" encoding="UTF-8" standalone="no"?>
<!DOCTYPE svg PUBLIC "-//W3C//DTD SVG 1.1//EN" "http://www.w3.org/Graphics/SVG/1.1/DTD/svg11.dtd">
<svg width="100%" height="100%" viewBox="0 0 2000 2000" version="1.1" xmlns="http://www.w3.org/2000/svg" xmlns:xlink="http://www.w3.org/1999/xlink" xml:space="preserve" xmlns:serif="http://www.serif.com/" style="fill-rule:evenodd;clip-rule:evenodd;stroke-linejoin:round;stroke-miterlimit:2;">
    <g transform="matrix(1.15869,-1.15869,1.15869,1.15869,-984.88,1348.42)">
        <g id="Layer-1" serif:id="Layer 1">
            <g>
                <g transform="matrix(10.3621,0,0,10.3621,1139.52,557.403)">
                    <path d="M0,28.713C0.568,27.748 1.082,26.747 1.534,25.713C3.059,22.234 3.911,18.395 3.911,14.356C3.911,10.318 3.059,6.479 1.535,3L-1.158,3C-1.521,3 -1.88,3.021 -2.234,3.055C-2.349,3.065 -2.46,3.084 -2.574,3.098C-2.813,3.128 -3.052,3.162 -3.287,3.207C-3.415,3.231 -3.542,3.26 -3.668,3.288C-3.887,3.338 -4.104,3.393 -4.318,3.455C-4.441,3.491 -4.565,3.527 -4.687,3.567C-4.909,3.64 -5.127,3.721 -5.343,3.807C-5.447,3.848 -5.552,3.886 -5.655,3.931C-5.95,4.058 -6.239,4.197 -6.521,4.348C-6.539,4.357 -6.557,4.365 -6.574,4.374C-6.871,4.536 -7.157,4.712 -7.437,4.899C-7.531,4.961 -7.62,5.029 -7.711,5.094C-7.896,5.224 -8.078,5.358 -8.254,5.499C-8.355,5.581 -8.454,5.666 -8.552,5.751C-8.712,5.888 -8.868,6.03 -9.02,6.175C-9.115,6.267 -9.209,6.359 -9.301,6.453C-9.453,6.609 -9.598,6.771 -9.74,6.936C-9.82,7.027 -9.901,7.117 -9.978,7.211C-10.156,7.43 -10.324,7.657 -10.486,7.89C-10.52,7.939 -10.557,7.985 -10.591,8.035C-10.772,8.305 -10.94,8.584 -11.098,8.87C-11.115,8.9 -11.134,8.928 -11.15,8.957C-11.149,8.96 -11.148,8.963 -11.147,8.965C-10.47,10.631 -10.089,12.448 -10.089,14.356C-10.089,16.267 -10.471,18.087 -11.15,19.755C-11.582,20.817 -12.141,21.811 -12.802,22.728C-15.41,26.347 -19.649,28.713 -24.446,28.713L-55.289,28.713C-63.212,28.713 -69.646,22.28 -69.646,14.356C-69.646,6.433 -63.212,0 -55.289,0L-29.028,0C-26.235,-5.407 -21.917,-9.896 -16.641,-12.902C-19.122,-13.611 -21.739,-14 -24.446,-14L-55.289,-14C-70.939,-14 -83.646,-1.294 -83.646,14.356C-83.646,30.007 -70.939,42.713 -55.289,42.713L-24.446,42.713C-21.739,42.713 -19.122,42.325 -16.641,41.615C-15.319,41.236 -14.038,40.765 -12.802,40.207C-7.44,37.785 -2.966,33.748 0,28.713" style="fill:rgb(184,0,255);fill-rule:nonzero;"/>
                </g>
                <g transform="matrix(10.3621,0,0,10.3621,1447.12,1000)">
                    <path d="M0,-56.713L-30.843,-56.713C-33.551,-56.713 -36.167,-56.325 -38.648,-55.615C-39.969,-55.236 -41.251,-54.765 -42.487,-54.207C-47.849,-51.785 -52.324,-47.748 -55.289,-42.713C-55.858,-41.748 -56.371,-40.747 -56.824,-39.713C-58.348,-36.234 -59.2,-32.395 -59.2,-28.357C-59.2,-24.318 -58.348,-20.479 -56.824,-17L-54.131,-17C-49.817,-17 -46.062,-19.411 -44.14,-22.958C-44.818,-24.626 -45.2,-26.446 -45.2,-28.357C-45.2,-30.268 -44.818,-32.088 -44.14,-33.756C-43.707,-34.817 -43.148,-35.811 -42.487,-36.728C-39.879,-40.347 -35.64,-42.713 -30.843,-42.713L0,-42.713C7.924,-42.713 14.357,-36.28 14.357,-28.357C14.357,-20.433 7.924,-14 0,-14L-26.261,-14C-29.055,-8.593 -33.372,-4.104 -38.648,-1.098C-36.167,-0.389 -33.551,0 -30.843,0L0,0C15.651,0 28.357,-12.706 28.357,-28.357C28.357,-44.007 15.651,-56.713 0,-56.713" style="fill:rgb(184,0,255);fill-rule:nonzero;"/>
                </g>
            </g>
        </g>
    </g>
</svg>
