<?xml version="1.0" encoding="UTF-8" standalone="no"?>
<!DOCTYPE svg PUBLIC "-//W3C//DTD SVG 1.1//EN" "http://www.w3.org/Graphics/SVG/1.1/DTD/svg11.dtd">
<svg width="100%" height="100%" viewBox="0 0 1800 1800" version="1.1" xmlns="http://www.w3.org/2000/svg" xmlns:xlink="http://www.w3.org/1999/xlink" xml:space="preserve" xmlns:serif="http://www.serif.com/" style="fill-rule:evenodd;clip-rule:evenodd;stroke-linejoin:round;stroke-miterlimit:2;">
    <g transform="matrix(1.04739,0,0,1.04739,-828.196,-828.196)">
        <g transform="matrix(1,0,0,1,-60.3948,-17.831)">
            <rect x="851.118" y="808.554" width="1718.56" height="1718.56" style="fill:rgb(238,238,238);"/>
        </g>
        <g transform="matrix(1,0,0,1,-1.17969,44.1685)">
            <path d="M1185.13,1881.31L2117.23,1881.31L2117.23,1165.21L1185.13,1165.21L1185.13,1881.31ZM1219.94,1846.5L2082.41,1846.5L2082.41,1200.02L1219.94,1200.02L1219.94,1846.5Z" style="fill:rgb(87,87,87);"/>
            <g transform="matrix(1,0,0,1,-3,-2)">
                <circle cx="1484.89" cy="1391.88" r="60.637" style="fill:rgb(87,87,87);"/>
            </g>
            <g transform="matrix(1,0,0,1,2.32812,0)">
                <path d="M1246.24,1819.83L2051.53,1819.83L2051.53,1779.3L1795.18,1411.06L1563.66,1753.22L1375.25,1523.26L1246.17,1658.77L1246.17,1819.8" style="fill:rgb(87,87,87);"/>
            </g>
            <g transform="matrix(2.04141,0,0,2.04141,-1472.5,-2062.5)">
                <text x="1303.36px" y="2001.91px" style="font-family:'Helvetica-Bold', 'Helvetica';font-weight:700;font-size:50px;fill:rgb(87,87,87);">No image available</text>
            </g>
        </g>
    </g>
</svg>
